<svg id="visual" viewBox="0 0 960 540" width="960" height="540" xmlns="http://www.w3.org/2000/svg" xmlns:xlink="http://www.w3.org/1999/xlink" version="1.1"><rect x="0" y="0" width="960" height="540" fill="#383c44"></rect><path d="M0 264L20 277.8C40 291.7 80 319.3 120 335.5C160 351.7 200 356.3 240 349.2C280 342 320 323 360 311.5C400 300 440 296 480 298.2C520 300.3 560 308.7 600 304.3C640 300 680 283 720 293.8C760 304.7 800 343.3 840 363.3C880 383.3 920 384.7 940 385.3L960 386L960 541L940 541C920 541 880 541 840 541C800 541 760 541 720 541C680 541 640 541 600 541C560 541 520 541 480 541C440 541 400 541 360 541C320 541 280 541 240 541C200 541 160 541 120 541C80 541 40 541 20 541L0 541Z" fill="#5a6170"></path><path d="M0 423L20 417.5C40 412 80 401 120 399C160 397 200 404 240 391.7C280 379.3 320 347.7 360 337.2C400 326.7 440 337.3 480 355.3C520 373.3 560 398.7 600 389.3C640 380 680 336 720 314.2C760 292.3 800 292.7 840 303.3C880 314 920 335 940 345.5L960 356L960 541L940 541C920 541 880 541 840 541C800 541 760 541 720 541C680 541 640 541 600 541C560 541 520 541 480 541C440 541 400 541 360 541C320 541 280 541 240 541C200 541 160 541 120 541C80 541 40 541 20 541L0 541Z" fill="#525866"></path><path d="M0 343L20 357.8C40 372.7 80 402.3 120 413.2C160 424 200 416 240 405.8C280 395.7 320 383.3 360 392C400 400.7 440 430.3 480 426.7C520 423 560 386 600 368.7C640 351.3 680 353.7 720 360.3C760 367 800 378 840 387.8C880 397.7 920 406.3 940 410.7L960 415L960 541L940 541C920 541 880 541 840 541C800 541 760 541 720 541C680 541 640 541 600 541C560 541 520 541 480 541C440 541 400 541 360 541C320 541 280 541 240 541C200 541 160 541 120 541C80 541 40 541 20 541L0 541Z" fill="#4a505d"></path><path d="M0 465L20 458.2C40 451.3 80 437.7 120 429C160 420.3 200 416.7 240 418.7C280 420.7 320 428.3 360 432.2C400 436 440 436 480 442.3C520 448.7 560 461.3 600 456.5C640 451.7 680 429.3 720 422.7C760 416 800 425 840 423.8C880 422.7 920 411.3 940 405.7L960 400L960 541L940 541C920 541 880 541 840 541C800 541 760 541 720 541C680 541 640 541 600 541C560 541 520 541 480 541C440 541 400 541 360 541C320 541 280 541 240 541C200 541 160 541 120 541C80 541 40 541 20 541L0 541Z" fill="#424754"></path><path d="M0 459L20 466.2C40 473.3 80 487.7 120 491C160 494.3 200 486.7 240 487.3C280 488 320 497 360 492.8C400 488.7 440 471.3 480 474.7C520 478 560 502 600 510.5C640 519 680 512 720 507C760 502 800 499 840 494C880 489 920 482 940 478.5L960 475L960 541L940 541C920 541 880 541 840 541C800 541 760 541 720 541C680 541 640 541 600 541C560 541 520 541 480 541C440 541 400 541 360 541C320 541 280 541 240 541C200 541 160 541 120 541C80 541 40 541 20 541L0 541Z" fill="#3a3f4b"></path></svg>