<svg id="visual" viewBox="0 0 960 540" width="960" height="540" xmlns="http://www.w3.org/2000/svg" xmlns:xlink="http://www.w3.org/1999/xlink" version="1.1"><rect x="0" y="0" width="960" height="540" fill="#bec2cb"></rect><path d="M0 308L20 318.5C40 329 80 350 120 364.2C160 378.3 200 385.7 240 377.2C280 368.7 320 344.3 360 323.3C400 302.3 440 284.7 480 294.8C520 305 560 343 600 359.7C640 376.3 680 371.7 720 348.7C760 325.7 800 284.3 840 259C880 233.7 920 224.3 940 219.7L960 215L960 541L940 541C920 541 880 541 840 541C800 541 760 541 720 541C680 541 640 541 600 541C560 541 520 541 480 541C440 541 400 541 360 541C320 541 280 541 240 541C200 541 160 541 120 541C80 541 40 541 20 541L0 541Z" fill="#969dae"></path><path d="M0 363L20 373.5C40 384 80 405 120 408.5C160 412 200 398 240 387.2C280 376.3 320 368.7 360 364.5C400 360.3 440 359.7 480 351.8C520 344 560 329 600 314C640 299 680 284 720 290C760 296 800 323 840 332C880 341 920 332 940 327.5L960 323L960 541L940 541C920 541 880 541 840 541C800 541 760 541 720 541C680 541 640 541 600 541C560 541 520 541 480 541C440 541 400 541 360 541C320 541 280 541 240 541C200 541 160 541 120 541C80 541 40 541 20 541L0 541Z" fill="#9ca3b2"></path><path d="M0 398L20 396.7C40 395.3 80 392.7 120 381C160 369.3 200 348.7 240 338.7C280 328.7 320 329.3 360 350.2C400 371 440 412 480 430.8C520 449.7 560 446.3 600 427.7C640 409 680 375 720 369C760 363 800 385 840 400.3C880 415.7 920 424.3 940 428.7L960 433L960 541L940 541C920 541 880 541 840 541C800 541 760 541 720 541C680 541 640 541 600 541C560 541 520 541 480 541C440 541 400 541 360 541C320 541 280 541 240 541C200 541 160 541 120 541C80 541 40 541 20 541L0 541Z" fill="#a3a9b7"></path><path d="M0 376L20 390.7C40 405.3 80 434.7 120 434.7C160 434.7 200 405.3 240 406.2C280 407 320 438 360 435.5C400 433 440 397 480 385.3C520 373.7 560 386.3 600 396.3C640 406.3 680 413.7 720 423.7C760 433.7 800 446.3 840 454C880 461.7 920 464.3 940 465.7L960 467L960 541L940 541C920 541 880 541 840 541C800 541 760 541 720 541C680 541 640 541 600 541C560 541 520 541 480 541C440 541 400 541 360 541C320 541 280 541 240 541C200 541 160 541 120 541C80 541 40 541 20 541L0 541Z" fill="#a9afbb"></path><path d="M0 498L20 498.2C40 498.3 80 498.7 120 483C160 467.3 200 435.7 240 419.7C280 403.7 320 403.3 360 411.3C400 419.3 440 435.7 480 437.2C520 438.7 560 425.3 600 424.5C640 423.7 680 435.3 720 438.8C760 442.3 800 437.7 840 435.2C880 432.7 920 432.3 940 432.2L960 432L960 541L940 541C920 541 880 541 840 541C800 541 760 541 720 541C680 541 640 541 600 541C560 541 520 541 480 541C440 541 400 541 360 541C320 541 280 541 240 541C200 541 160 541 120 541C80 541 40 541 20 541L0 541Z" fill="#b0b5c0"></path><path d="M0 471L20 477.2C40 483.3 80 495.7 120 503.3C160 511 200 514 240 514.5C280 515 320 513 360 506.5C400 500 440 489 480 483.3C520 477.7 560 477.3 600 473C640 468.7 680 460.3 720 463.5C760 466.7 800 481.3 840 486.8C880 492.3 920 488.7 940 486.8L960 485L960 541L940 541C920 541 880 541 840 541C800 541 760 541 720 541C680 541 640 541 600 541C560 541 520 541 480 541C440 541 400 541 360 541C320 541 280 541 240 541C200 541 160 541 120 541C80 541 40 541 20 541L0 541Z" fill="#b7bbc4"></path></svg>